                                                                        S      1
,,20Hspool_distance_plate,20Hspool_distance_plate,7Hunknown,7Hunknown,  G      1
32,38,7,99,15,,1.,2,2HMM,1,0.08,15H20180213.205324,0.01,10000.,7HunknownG      2
,7Hunknown,11,0,;                                                       G      3
     408       1                                                00000001D      1
     408       0               1       0                               0D      2
     308       2                                                00010200D      3
     308       0               1       0                               0D      4
     186       3                                                00010000D      5
     186            -205       1       0                               0D      6
     514       4                                                00010000D      7
     514                       2       1                               0D      8
     510       6                                                00010000D      9
     510            -205       1       1                               0D     10
     510       7                                                00010000D     11
     510            -205       1       1                               0D     12
     510       8                                                00010000D     13
     510            -205       1       1                               0D     14
     510       9                                                00010000D     15
     510            -205       1       1                               0D     16
     510      10                                                00010000D     17
     510            -205       1       1                               0D     18
     510      11                                                00010000D     19
     510            -205       1       1                               0D     20
     510      12                                                00010000D     21
     510            -205       1       1                               0D     22
     510      13                                                00010000D     23
     510            -205       1       1                               0D     24
     510      14                                                00010000D     25
     510            -205       1       1                               0D     26
     510      15                                                00010000D     27
     510            -205       1       1                               0D     28
     510      16                                                00010000D     29
     510            -205       1       1                               0D     30
     510      17                                                00010000D     31
     510            -205       1       1                               0D     32
     510      18                                                00010000D     33
     510            -205       1       1                               0D     34
     510      19                                                00010000D     35
     510            -205       1       1                               0D     36
     510      20                                                00010000D     37
     510            -205       1       1                               0D     38
     510      21                                                00010000D     39
     510            -205       1       1                               0D     40
     508      22                                                00010000D     41
     508                       2       1                               0D     42
     508      24                                                00010000D     43
     508                       2       1                               0D     44
     508      26                                                00010000D     45
     508                       1       1                               0D     46
     508      27                                                00010000D     47
     508                       1       1                               0D     48
     508      28                                                00010000D     49
     508                       2       1                               0D     50
     508      30                                                00010000D     51
     508                       1       1                               0D     52
     508      31                                                00010000D     53
     508                       1       1                               0D     54
     508      32                                                00010000D     55
     508                       2       1                               0D     56
     508      34                                                00010000D     57
     508                       2       1                               0D     58
     508      36                                                00010000D     59
     508                       1       1                               0D     60
     508      37                                                00010000D     61
     508                       1       1                               0D     62
     508      38                                                00010000D     63
     508                       2       1                               0D     64
     508      40                                                00010000D     65
     508                       2       1                               0D     66
     508      42                                                00010000D     67
     508                       2       1                               0D     68
     508      44                                                00010000D     69
     508                       2       1                               0D     70
     508      46                                                00010000D     71
     508                       1       1                               0D     72
     508      47                                                00010000D     73
     508                       1       1                               0D     74
     508      48                                                00010000D     75
     508                       2       1                               0D     76
     508      50                                                00010000D     77
     508                       1       1                               0D     78
     508      51                                                00010000D     79
     508                       1       1                               0D     80
     508      52                                                00010000D     81
     508                       2       1                               0D     82
     126      54                                                00010000D     83
     126       0               8       0                               0D     84
     126      62                                                00010000D     85
     126       0               4       0                               0D     86
     126      66                                                00010000D     87
     126       0               8       0                               0D     88
     126      74                                                00010000D     89
     126       0               5       0                               0D     90
     126      79                                                00010000D     91
     126       0               5       0                               0D     92
     126      84                                                00010000D     93
     126       0               5       0                               0D     94
     126      89                                                00010000D     95
     126       0               3       0                               0D     96
     126      92                                                00010000D     97
     126       0               8       0                               0D     98
     126     100                                                00010000D     99
     126       0               9       0                               0D    100
     126     109                                                00010000D    101
     126       0               8       0                               0D    102
     126     117                                                00010000D    103
     126       0               4       0                               0D    104
     126     121                                                00010000D    105
     126       0               5       0                               0D    106
     126     126                                                00010000D    107
     126       0               8       0                               0D    108
     126     134                                                00010000D    109
     126       0               5       0                               0D    110
     126     139                                                00010000D    111
     126       0               5       0                               0D    112
     126     144                                                00010000D    113
     126       0               5       0                               0D    114
     126     149                                                00010000D    115
     126       0               5       0                               0D    116
     126     154                                                00010000D    117
     126       0               8       0                               0D    118
     126     162                                                00010000D    119
     126       0               7       0                               0D    120
     126     169                                                00010000D    121
     126       0               3       0                               0D    122
     126     172                                                00010000D    123
     126       0               8       0                               0D    124
     126     180                                                00010000D    125
     126       0               5       0                               0D    126
     126     185                                                00010000D    127
     126       0               5       0                               0D    128
     126     190                                                00010000D    129
     126       0               4       0                               0D    130
     126     194                                                00010000D    131
     126       0               7       0                               0D    132
     126     201                                                00010000D    133
     126       0              10       0                               0D    134
     126     211                                                00010000D    135
     126       0               3       0                               0D    136
     126     214                                                00010000D    137
     126       0               7       0                               0D    138
     126     221                                                00010000D    139
     126       0               3       0                               0D    140
     126     224                                                00010000D    141
     126       0               7       0                               0D    142
     126     231                                                00010000D    143
     126       0               5       0                               0D    144
     126     236                                                00010000D    145
     126       0               5       0                               0D    146
     126     241                                                00010000D    147
     126       0               5       0                               0D    148
     126     246                                                00010000D    149
     126       0               3       0                               0D    150
     126     249                                                00010000D    151
     126       0               7       0                               0D    152
     126     256                                                00010000D    153
     126       0               8       0                               0D    154
     126     264                                                00010000D    155
     126       0               3       0                               0D    156
     126     267                                                00010000D    157
     126       0               5       0                               0D    158
     126     272                                                00010000D    159
     126       0               8       0                               0D    160
     126     280                                                00010000D    161
     126       0               5       0                               0D    162
     126     285                                                00010000D    163
     126       0               3       0                               0D    164
     128     288                                                00010000D    165
     128       0    -205      17       0                               0D    166
     128     305                                                00010000D    167
     128       0    -205      13       0                               0D    168
     128     318                                                00010000D    169
     128       0    -205       3       0                               0D    170
     128     321                                                00010000D    171
     128       0    -205      19       0                               0D    172
     128     340                                                00010000D    173
     128       0    -205       3       0                               0D    174
     128     343                                                00010000D    175
     128       0    -205      21       0                               0D    176
     128     364                                                00010000D    177
     128       0    -205      13       0                               0D    178
     128     377                                                00010000D    179
     128       0    -205       3       0                               0D    180
     128     380                                                00010000D    181
     128       0    -205      21       0                               0D    182
     128     401                                                00010000D    183
     128       0    -205      14       0                               0D    184
     128     415                                                00010000D    185
     128       0    -205      16       0                               0D    186
     128     431                                                00010000D    187
     128       0    -205      13       0                               0D    188
     128     444                                                00010000D    189
     128       0    -205       3       0                               0D    190
     128     447                                                00010000D    191
     128       0    -205      17       0                               0D    192
     128     464                                                00010000D    193
     128       0    -205       3       0                               0D    194
     128     467                                                00010000D    195
     128       0    -205      16       0                               0D    196
     502     483                                                00010000D    197
     502                      11       1                               0D    198
     504     494                                                00010001D    199
     504                      12       1                               0D    200
     406     506                                                00000000D    201
     406                       1      15                               0D    202
     406     507                                                00000000D    203
     406                       1      15                               0D    204
     314     508                                                00000200D    205
     314                       2       0                               0D    206
408,3,0.,0.,0.,1.,0,1,203;                                             1P      1
308,0,20Hspool_distance_plate,1,5;                                     3P      2
186,7,1,0,0,1,201;                                                     5P      3
514,16,9,1,11,1,13,1,15,1,17,1,19,1,21,1,23,1,25,1,27,1,29,1,31,       7P      4
1,33,1,35,1,37,1,39,1;                                                 7P      5
510,165,1,1,41;                                                        9P      6
510,167,1,1,43;                                                       11P      7
510,169,2,1,45,47;                                                    13P      8
510,171,1,1,49;                                                       15P      9
510,173,2,1,51,53;                                                    17P     10
510,175,1,1,55;                                                       19P     11
510,177,1,1,57;                                                       21P     12
510,179,2,1,59,61;                                                    23P     13
510,181,1,1,63;                                                       25P     14
510,183,1,1,65;                                                       27P     15
510,185,1,1,67;                                                       29P     16
510,187,1,1,69;                                                       31P     17
510,189,2,1,71,73;                                                    33P     18
510,191,1,1,75;                                                       35P     19
510,193,2,1,77,79;                                                    37P     20
510,195,1,1,81;                                                       39P     21
508,6,0,199,1,1,0,0,199,2,1,0,0,199,3,1,0,0,199,4,1,0,0,199,2,0,      41P     22
0,0,199,5,1,0;                                                        41P     23
508,6,0,199,6,0,0,0,199,7,1,0,0,199,5,0,0,0,199,1,0,0,0,199,7,0,      43P     24
0,0,199,8,0,0;                                                        43P     25
508,1,0,199,9,0,0;                                                    45P     26
508,2,0,199,4,0,0,0,199,3,0,0;                                        47P     27
508,6,0,199,10,1,0,0,199,11,1,0,0,199,8,1,0,0,199,6,1,0,0,199,        49P     28
11,0,0,0,199,12,1,0;                                                  49P     29
508,2,0,199,13,0,0,0,199,14,0,0;                                      51P     30
508,2,0,199,10,0,0,0,199,12,0,0;                                      53P     31
508,6,0,199,15,1,0,0,199,16,1,0,0,199,17,1,0,0,199,18,1,0,0,199,      55P     32
16,0,0,0,199,19,1,0;                                                  55P     33
508,5,0,199,18,0,0,0,199,20,1,0,0,199,9,1,0,0,199,20,0,0,0,199,       57P     34
17,0,0;                                                               57P     35
508,2,0,199,21,0,0,0,199,22,0,0;                                      59P     36
508,2,0,199,15,0,0,0,199,19,0,0;                                      61P     37
508,6,0,199,23,1,0,0,199,24,1,0,0,199,22,1,0,0,199,21,1,0,0,199,      63P     38
24,0,0,0,199,25,1,0;                                                  63P     39
508,5,0,199,26,0,0,0,199,27,1,0,0,199,25,0,0,0,199,23,0,0,0,199,      65P     40
27,0,0;                                                               65P     41
508,6,0,199,28,1,0,0,199,29,1,0,0,199,30,1,0,0,199,31,1,0,0,199,      67P     42
29,0,0,0,199,32,1,0;                                                  67P     43
508,6,0,199,33,0,0,0,199,34,1,0,0,199,32,0,0,0,199,28,0,0,0,199,      69P     44
34,0,0,0,199,35,0,0;                                                  69P     45
508,2,0,199,31,0,0,0,199,30,0,0;                                      71P     46
508,1,0,199,26,1,0;                                                   73P     47
508,6,0,199,36,1,0,0,199,37,1,0,0,199,35,1,0,0,199,33,1,0,0,199,      75P     48
37,0,0,0,199,38,1,0;                                                  75P     49
508,2,0,199,36,0,0,0,199,38,0,0;                                      77P     50
508,2,0,199,39,1,0,0,199,40,1,0;                                      79P     51
508,6,0,199,13,1,0,0,199,41,1,0,0,199,39,0,0,0,199,40,0,0,0,199,      81P     52
41,0,0,0,199,14,1,0;                                                  81P     53
126,6,2,0,0,0,0,-3.14159265358979,-3.14159265358979,                  83P     54
-3.14159265358979,-1.5707963267949,-1.5707963267949,0.,0.,            83P     55
1.5707963267949,1.5707963267949,1.5707963267949,1.,                   83P     56
0.707106781186548,1.,0.707106781186548,1.,0.707106781186548,1.,       83P     57
4.1,7.6,-5.02105187650415D-16,4.1,7.6,-4.1,                           83P     58
-2.51052593825207D-16,7.6,-4.1,-4.1,7.6,-4.1,-4.1,7.6,0.,-4.1,        83P     59
7.6,4.1,-2.51052593825207D-16,7.6,4.1,-3.14159265358979,              83P     60
1.5707963267949,0.,0.,0.;                                             83P     61
126,2,2,0,0,0,0,-3.14159265358979,-3.14159265358979,                  85P     62
-3.14159265358979,-1.5707963267949,-1.5707963267949,                  85P     63
-1.5707963267949,1.,0.707106781186548,1.,0.,7.6,4.1,0.,7.,4.1,        85P     64
0.,7.,4.7,-3.14159265358979,-1.5707963267949,0.,0.,0.;                85P     65
126,6,2,0,0,0,0,-1.5707963267949,-1.5707963267949,                    87P     66
-1.5707963267949,0.,0.,1.5707963267949,1.5707963267949,               87P     67
3.14159265358979,3.14159265358979,3.14159265358979,1.,                87P     68
0.707106781186548,1.,0.707106781186548,1.,0.707106781186548,1.,       87P     69
-2.87791997799628D-16,7.,4.7,-4.7,7.,4.7,-4.7,7.,0.,-4.7,7.,          87P     70
-4.7,-2.87791997799628D-16,7.,-4.7,4.7,7.,-4.7,4.7,7.,                87P     71
-5.75583995599256D-16,-1.5707963267949,3.14159265358979,0.,0.,        87P     72
0.;                                                                   87P     73
126,2,2,0,0,0,0,-3.14159265358979,-3.14159265358979,                  89P     74
-3.14159265358979,-1.5707963267949,-1.5707963267949,                  89P     75
-1.5707963267949,1.,0.707106781186548,1.,4.7,7.,                      89P     76
5.75583995599256D-16,4.7,7.,4.7,-2.87791997799628D-16,7.,4.7,         89P     77
-3.14159265358979,-1.5707963267949,0.,0.,0.;                          89P     78
126,2,2,0,0,0,0,1.5707963267949,1.5707963267949,1.5707963267949,      91P     79
3.14159265358979,3.14159265358979,3.14159265358979,1.,                91P     80
0.707106781186548,1.,-2.51052593825207D-16,7.6,4.1,4.1,7.6,4.1,       91P     81
4.1,7.6,5.02105187650415D-16,1.5707963267949,3.14159265358979,        91P     82
0.,0.,0.;                                                             91P     83
126,2,2,0,0,0,0,-3.14159265358979,-3.14159265358979,                  93P     84
-3.14159265358979,-1.5707963267949,-1.5707963267949,                  93P     85
-1.5707963267949,1.,0.707106781186548,1.,4.1,11.4,                    93P     86
5.02105187650415D-16,4.1,11.4,4.1,-2.51052593825207D-16,11.4,         93P     87
4.1,-3.14159265358979,-1.5707963267949,0.,0.,0.;                      93P     88
126,1,1,0,0,1,0,-0.0975609756097562,-0.0975609756097562,              95P     89
0.829268292682927,0.829268292682927,1.,1.,4.1,11.4,0.,4.1,7.6,        95P     90
0.,-0.0975609756097562,0.829268292682927,0.,0.,0.;                    95P     91
126,6,2,0,0,0,0,-1.5707963267949,-1.5707963267949,                    97P     92
-1.5707963267949,0.,0.,1.5707963267949,1.5707963267949,               97P     93
3.14159265358979,3.14159265358979,3.14159265358979,1.,                97P     94
0.707106781186548,1.,0.707106781186548,1.,0.707106781186548,1.,       97P     95
-2.51052593825207D-16,11.4,4.1,-4.1,11.4,4.1,-4.1,11.4,0.,-4.1,       97P     96
11.4,-4.1,-2.51052593825207D-16,11.4,-4.1,4.1,11.4,-4.1,4.1,          97P     97
11.4,-5.02105187650415D-16,-1.5707963267949,3.14159265358979,0.,      97P     98
0.,0.;                                                                97P     99
126,8,2,0,1,0,0,-3.14159265358979,-3.14159265358979,                  99P    100
-3.14159265358979,-1.5707963267949,-1.5707963267949,0.,0.,            99P    101
1.5707963267949,1.5707963267949,3.14159265358979,                     99P    102
3.14159265358979,3.14159265358979,1.,0.707106781186548,1.,            99P    103
0.707106781186547,1.,0.707106781186547,1.,0.707106781186548,1.,       99P    104
-11.,7.,1.34711147906209D-15,-11.,7.,11.,6.73555739531044D-16,        99P    105
7.,11.,11.,7.,11.,11.,7.,0.,11.,7.,-11.,6.73555739531044D-16,7.,      99P    106
-11.,-11.,7.,-11.,-11.,7.,-1.34711147906209D-15,                      99P    107
-3.14159265358979,3.14159265358979,0.,0.,0.;                          99P    108
126,6,2,0,0,0,0,-3.14159265358979,-3.14159265358979,                 101P    109
-3.14159265358979,-1.5707963267949,-1.5707963267949,0.,0.,           101P    110
1.5707963267949,1.5707963267949,1.5707963267949,1.,                  101P    111
0.707106781186548,1.,0.707106781186548,1.,0.707106781186548,1.,      101P    112
4.7,12.,-5.75583995599256D-16,4.7,12.,-4.7,                          101P    113
-2.87791997799628D-16,12.,-4.7,-4.7,12.,-4.7,-4.7,12.,0.,-4.7,       101P    114
12.,4.7,-2.87791997799628D-16,12.,4.7,-3.14159265358979,             101P    115
1.5707963267949,0.,0.,0.;                                            101P    116
126,2,2,0,0,0,0,1.5707963267949,1.5707963267949,1.5707963267949,     103P    117
3.14159265358979,3.14159265358979,3.14159265358979,1.,               103P    118
0.707106781186543,1.,0.,12.,4.7,0.,12.,4.1,0.,11.4,4.1,              103P    119
1.5707963267949,3.14159265358979,0.,0.,0.;                           103P    120
126,2,2,0,0,0,0,1.5707963267949,1.5707963267949,1.5707963267949,     105P    121
3.14159265358979,3.14159265358979,3.14159265358979,1.,               105P    122
0.707106781186548,1.,-2.87791997799628D-16,12.,4.7,4.7,12.,4.7,      105P    123
4.7,12.,5.75583995599256D-16,1.5707963267949,3.14159265358979,       105P    124
0.,0.,0.;                                                            105P    125
126,6,2,0,0,0,0,-3.14159265358979,-3.14159265358979,                 107P    126
-3.14159265358979,-1.5707963267949,-1.5707963267949,0.,0.,           107P    127
1.5707963267949,1.5707963267949,1.5707963267949,1.,                  107P    128
0.707106781186548,1.,0.707106781186547,1.,0.707106781186547,1.,      107P    129
6.5,12.,7.96020419445779D-16,6.5,12.,6.5,-3.9801020972289D-16,       107P    130
12.,6.5,-6.5,12.,6.5,-6.5,12.,0.,-6.5,12.,-6.5,                      107P    131
-3.9801020972289D-16,12.,-6.5,-3.14159265358979,1.5707963267949,     107P    132
0.,0.,0.;                                                            107P    133
126,2,2,0,0,0,0,1.5707963267949,1.5707963267949,1.5707963267949,     109P    134
3.14159265358979,3.14159265358979,3.14159265358979,1.,               109P    135
0.707106781186548,1.,-3.9801020972289D-16,12.,-6.5,6.5,12.,-6.5,     109P    136
6.5,12.,-7.96020419445779D-16,1.5707963267949,3.14159265358979,      109P    137
0.,0.,0.;                                                            109P    138
126,2,2,0,0,0,0,-3.14159265358979,-3.14159265358979,                 111P    139
-3.14159265358979,-1.5707963267949,-1.5707963267949,                 111P    140
-1.5707963267949,1.,0.707106781186548,1.,-11.6,0.,                   111P    141
-1.42059028701093D-15,-11.6,0.,-11.6,7.10295143505465D-16,0.,        111P    142
-11.6,-3.14159265358979,-1.5707963267949,0.,0.,0.;                   111P    143
126,2,2,0,0,0,0,1.57079632679489,1.57079632679489,                   113P    144
1.57079632679489,3.14159265358979,3.14159265358979,                  113P    145
3.14159265358979,1.,0.707106781186546,1.,0.,0.,-11.6,0.,             113P    146
-1.39716465440986D-15,-11.,0.,0.6,-11.,1.57079632679489,             113P    147
3.14159265358979,0.,0.,0.;                                           113P    148
126,2,2,0,0,0,0,1.5707963267949,1.5707963267949,1.5707963267949,     115P    149
3.14159265358979,3.14159265358979,3.14159265358979,1.,               115P    150
0.707106781186548,1.,6.73555739531044D-16,0.6,-11.,-11.,0.6,         115P    151
-11.,-11.,0.6,-1.34711147906209D-15,1.5707963267949,                 115P    152
3.14159265358979,0.,0.,0.;                                           115P    153
126,6,2,0,0,0,0,-3.14159265358979,-3.14159265358979,                 117P    154
-3.14159265358979,-1.5707963267949,-1.5707963267949,0.,0.,           117P    155
1.5707963267949,1.5707963267949,1.5707963267949,1.,                  117P    156
0.707106781186548,1.,0.707106781186547,1.,0.707106781186547,1.,      117P    157
-11.,0.6,1.34711147906209D-15,-11.,0.6,11.,6.73555739531044D-16,     117P    158
0.6,11.,11.,0.6,11.,11.,0.6,0.,11.,0.6,-11.,                         117P    159
6.73555739531044D-16,0.6,-11.,-3.14159265358979,1.5707963267949,     117P    160
0.,0.,0.;                                                            117P    161
126,6,2,0,0,0,0,-1.5707963267949,-1.5707963267949,                   119P    162
-1.5707963267949,0.,0.,1.5707963267949,1.5707963267949,              119P    163
3.14159265358979,3.14159265358979,3.14159265358979,1.,               119P    164
0.707106781186547,1.,0.707106781186547,1.,0.707106781186548,1.,      119P    165
7.10295143505465D-16,0.,-11.6,11.6,0.,-11.6,11.6,0.,0.,11.6,0.,      119P    166
11.6,7.10295143505465D-16,0.,11.6,-11.6,0.,11.6,-11.6,0.,            119P    167
1.42059028701093D-15,-1.5707963267949,3.14159265358979,0.,0.,0.;     119P    168
126,1,1,0,0,1,0,0.0545454545454545,0.0545454545454545,               121P    169
0.636363636363636,0.636363636363636,1.,1.,-11.,0.6,0.,-11.,7.,       121P    170
0.,0.0545454545454545,0.636363636363636,0.,0.,0.;                    121P    171
126,6,2,0,0,0,0,-3.14159265358979,-3.14159265358979,                 123P    172
-3.14159265358979,-1.5707963267949,-1.5707963267949,0.,0.,           123P    173
1.5707963267949,1.5707963267949,1.5707963267949,1.,                  123P    174
0.707106781186548,1.,0.707106781186547,1.,0.707106781186547,1.,      123P    175
-25.25,0.,3.09223316784707D-15,-25.25,0.,25.25,                      123P    176
1.54611658392353D-15,0.,25.25,25.25,0.,25.25,25.25,0.,0.,25.25,      123P    177
0.,-25.25,1.54611658392353D-15,0.,-25.25,-3.14159265358979,          123P    178
1.5707963267949,0.,0.,0.;                                            123P    179
126,2,2,0,0,0,0,1.5707963267949,1.5707963267949,1.5707963267949,     125P    180
3.14159265358979,3.14159265358979,3.14159265358979,1.,               125P    181
0.707106781186548,1.,1.54611658392353D-15,0.,-25.25,-25.25,0.,       125P    182
-25.25,-25.25,0.,-3.09223316784707D-15,1.5707963267949,              125P    183
3.14159265358979,0.,0.,0.;                                           125P    184
126,2,2,0,0,0,0,-3.14159265358979,-3.14159265358979,                 127P    185
-3.14159265358979,-1.5707963267949,-1.5707963267949,                 127P    186
-1.5707963267949,1.,0.707106781186548,1.,-26.25,1.,                  127P    187
-3.2146978477618D-15,-26.25,1.,-26.25,1.6073489238809D-15,1.,        127P    188
-26.25,-3.14159265358979,-1.5707963267949,0.,0.,0.;                  127P    189
126,2,2,0,0,0,0,0.,0.,0.,1.5707963267949,1.5707963267949,            129P    190
1.5707963267949,1.,0.707106781186541,1.,0.,1.,-26.25,0.,             129P    191
-8.35527862831922D-16,-26.25,0.,0.,-25.25,0.,1.5707963267949,0.,     129P    192
0.,0.;                                                               129P    193
126,6,2,0,0,0,0,-1.5707963267949,-1.5707963267949,                   131P    194
-1.5707963267949,0.,0.,1.5707963267949,1.5707963267949,              131P    195
3.14159265358979,3.14159265358979,3.14159265358979,1.,               131P    196
0.707106781186548,1.,0.707106781186548,1.,0.707106781186548,1.,      131P    197
1.6073489238809D-15,1.,-26.25,26.25,1.,-26.25,26.25,1.,0.,26.25,     131P    198
1.,26.25,1.6073489238809D-15,1.,26.25,-26.25,1.,26.25,-26.25,1.,     131P    199
3.2146978477618D-15,-1.5707963267949,3.14159265358979,0.,0.,0.;      131P    200
126,8,2,0,1,0,0,-3.14159265358979,-3.14159265358979,                 133P    201
-3.14159265358979,-1.5707963267949,-1.5707963267949,0.,0.,           133P    202
1.5707963267949,1.5707963267949,3.14159265358979,                    133P    203
3.14159265358979,3.14159265358979,1.,0.707106781186548,1.,           133P    204
0.707106781186548,1.,0.707106781186548,1.,0.707106781186548,1.,      133P    205
-26.25,7.,3.2146978477618D-15,-26.25,7.,26.25,                       133P    206
1.6073489238809D-15,7.,26.25,26.25,7.,26.25,26.25,7.,0.,26.25,       133P    207
7.,-26.25,1.6073489238809D-15,7.,-26.25,-26.25,7.,-26.25,-26.25,     133P    208
7.,-3.2146978477618D-15,-3.14159265358979,3.14159265358979,0.,       133P    209
0.,0.;                                                               133P    210
126,1,1,0,0,1,0,-0.266666666666667,-0.266666666666667,               135P    211
-0.0380952380952381,-0.0380952380952381,1.,1.,-26.25,7.,0.,          135P    212
-26.25,1.,0.,-0.266666666666667,-0.0380952380952381,0.,0.,0.;        135P    213
126,6,2,0,0,0,0,-3.14159265358979,-3.14159265358979,                 137P    214
-3.14159265358979,-1.5707963267949,-1.5707963267949,0.,0.,           137P    215
1.5707963267949,1.5707963267949,1.5707963267949,1.,                  137P    216
0.707106781186548,1.,0.707106781186548,1.,0.707106781186548,1.,      137P    217
29.,8.,3.55147571752732D-15,29.,8.,29.,-1.77573785876366D-15,8.,     137P    218
29.,-29.,8.,29.,-29.,8.,0.,-29.,8.,-29.,-1.77573785876366D-15,       137P    219
8.,-29.,-3.14159265358979,1.5707963267949,0.,0.,0.;                  137P    220
126,2,2,0,0,0,0,0.,0.,0.,1.5707963267949,1.5707963267949,            139P    221
1.5707963267949,1.,0.707106781186544,1.,0.,8.,-29.,0.,7.,-29.,       139P    222
0.,7.,-28.,0.,1.5707963267949,0.,0.,0.;                              139P    223
126,6,2,0,0,0,0,-1.5707963267949,-1.5707963267949,                   141P    224
-1.5707963267949,0.,0.,1.5707963267949,1.5707963267949,              141P    225
3.14159265358979,3.14159265358979,3.14159265358979,1.,               141P    226
0.707106781186547,1.,0.707106781186547,1.,0.707106781186548,1.,      141P    227
-1.71450551880629D-15,7.,-28.,-28.,7.,-28.,-28.,7.,0.,-28.,7.,       141P    228
28.,-1.71450551880629D-15,7.,28.,28.,7.,28.,28.,7.,                  141P    229
3.42901103761259D-15,-1.5707963267949,3.14159265358979,0.,0.,0.;     141P    230
126,2,2,0,0,0,0,-3.14159265358979,-3.14159265358979,                 143P    231
-3.14159265358979,-1.5707963267949,-1.5707963267949,                 143P    232
-1.5707963267949,1.,0.707106781186548,1.,28.,7.,                     143P    233
-3.42901103761259D-15,28.,7.,-28.,-1.71450551880629D-15,7.,-28.,     143P    234
-3.14159265358979,-1.5707963267949,0.,0.,0.;                         143P    235
126,2,2,0,0,0,0,1.5707963267949,1.5707963267949,1.5707963267949,     145P    236
3.14159265358979,3.14159265358979,3.14159265358979,1.,               145P    237
0.707106781186548,1.,-1.77573785876366D-15,8.,-29.,29.,8.,-29.,      145P    238
29.,8.,-3.55147571752732D-15,1.5707963267949,3.14159265358979,       145P    239
0.,0.,0.;                                                            145P    240
126,2,2,0,0,0,0,-3.14159265358979,-3.14159265358979,                 147P    241
-3.14159265358979,-1.5707963267949,-1.5707963267949,                 147P    242
-1.5707963267949,1.,0.707106781186548,1.,29.,10.,                    147P    243
-3.55147571752732D-15,29.,10.,-29.,-1.77573785876366D-15,10.,        147P    244
-29.,-3.14159265358979,-1.5707963267949,0.,0.,0.;                    147P    245
126,1,1,0,0,1,0,-0.103448275862069,-0.103448275862069,               149P    246
-0.0344827586206896,-0.0344827586206896,1.,1.,29.,10.,0.,29.,8.,     149P    247
0.,-0.103448275862069,-0.0344827586206896,0.,0.,0.;                  149P    248
126,6,2,0,0,0,0,-1.5707963267949,-1.5707963267949,                   151P    249
-1.5707963267949,0.,0.,1.5707963267949,1.5707963267949,              151P    250
3.14159265358979,3.14159265358979,3.14159265358979,1.,               151P    251
0.707106781186548,1.,0.707106781186548,1.,0.707106781186548,1.,      151P    252
-1.77573785876366D-15,10.,-29.,-29.,10.,-29.,-29.,10.,0.,-29.,       151P    253
10.,29.,-1.77573785876366D-15,10.,29.,29.,10.,29.,29.,10.,           151P    254
3.55147571752732D-15,-1.5707963267949,3.14159265358979,0.,0.,0.;     151P    255
126,6,2,0,0,0,0,-3.14159265358979,-3.14159265358979,                 153P    256
-3.14159265358979,-1.5707963267949,-1.5707963267949,0.,0.,           153P    257
1.5707963267949,1.5707963267949,1.5707963267949,1.,                  153P    258
0.707106781186548,1.,0.707106781186547,1.,0.707106781186547,1.,      153P    259
28.,11.,3.42901103761259D-15,28.,11.,28.,-1.71450551880629D-15,      153P    260
11.,28.,-28.,11.,28.,-28.,11.,0.,-28.,11.,-28.,                      153P    261
-1.71450551880629D-15,11.,-28.,-3.14159265358979,                    153P    262
1.5707963267949,0.,0.,0.;                                            153P    263
126,2,2,0,0,0,0,-1.5707963267949,-1.5707963267949,                   155P    264
-1.5707963267949,0.,0.,0.,1.,0.707106781186542,1.,0.,11.,-28.,       155P    265
0.,11.,-29.,0.,10.,-29.,-1.5707963267949,0.,0.,0.,0.;                155P    266
126,2,2,0,0,0,0,1.5707963267949,1.5707963267949,1.5707963267949,     157P    267
3.14159265358979,3.14159265358979,3.14159265358979,1.,               157P    268
0.707106781186548,1.,-1.71450551880629D-15,11.,-28.,28.,11.,         157P    269
-28.,28.,11.,-3.42901103761259D-15,1.5707963267949,                  157P    270
3.14159265358979,0.,0.,0.;                                           157P    271
126,6,2,0,0,0,0,-3.14159265358979,-3.14159265358979,                 159P    272
-3.14159265358979,-1.5707963267949,-1.5707963267949,0.,0.,           159P    273
1.5707963267949,1.5707963267949,1.5707963267949,1.,                  159P    274
0.707106781186547,1.,0.707106781186547,1.,0.707106781186547,1.,      159P    275
7.5,11.,9.18485099360515D-16,7.5,11.,7.5,-4.59242549680257D-16,      159P    276
11.,7.5,-7.5,11.,7.5,-7.5,11.,0.,-7.5,11.,-7.5,                      159P    277
-4.59242549680257D-16,11.,-7.5,-3.14159265358979,                    159P    278
1.5707963267949,0.,0.,0.;                                            159P    279
126,2,2,0,0,0,0,1.5707963267949,1.5707963267949,1.5707963267949,     161P    280
3.14159265358979,3.14159265358979,3.14159265358979,1.,               161P    281
0.707106781186547,1.,-4.59242549680257D-16,11.,-7.5,7.5,11.,         161P    282
-7.5,7.5,11.,-9.18485099360515D-16,1.5707963267949,                  161P    283
3.14159265358979,0.,0.,0.;                                           161P    284
126,2,2,0,0,0,0,-1.5707963267949,-1.5707963267949,                   163P    285
-1.5707963267949,0.,0.,0.,1.,0.707106781186548,1.,0.,12.,-6.5,       163P    286
0.,12.,-7.5,0.,11.,-7.5,-1.5707963267949,0.,0.,0.,0.;                163P    287
128,2,8,2,2,0,1,0,0,1,1.5707963267949,1.5707963267949,               165P    288
1.5707963267949,3.14159265358979,3.14159265358979,                   165P    289
3.14159265358979,-3.14159265358979,-3.14159265358979,                165P    290
-3.14159265358979,-1.5707963267949,-1.5707963267949,0.,0.,           165P    291
1.5707963267949,1.5707963267949,3.14159265358979,                    165P    292
3.14159265358979,3.14159265358979,1.,0.707106781186548,1.,           165P    293
0.707106781186548,0.5,0.707106781186548,1.,0.707106781186548,1.,     165P    294
0.707106781186548,0.5,0.707106781186548,1.,0.707106781186548,1.,     165P    295
0.707106781186548,0.5,0.707106781186548,1.,0.707106781186548,1.,     165P    296
0.707106781186548,0.5,0.707106781186548,1.,0.707106781186548,1.,     165P    297
0.,7.6,4.1,0.,7.,4.1,0.,7.,4.7,-4.1,7.6,4.1,-4.1,7.,4.1,-4.7,7.,     165P    298
4.7,-4.1,7.6,0.,-4.1,7.,0.,-4.7,7.,0.,-4.1,7.6,-4.1,-4.1,7.,         165P    299
-4.1,-4.7,7.,-4.7,0.,7.6,-4.1,0.,7.,-4.1,0.,7.,-4.7,4.1,7.6,         165P    300
-4.1,4.1,7.,-4.1,4.7,7.,-4.7,4.1,7.6,0.,4.1,7.,0.,4.7,7.,0.,4.1,     165P    301
7.6,4.1,4.1,7.,4.1,4.7,7.,4.7,0.,7.6,4.1,0.,7.,4.1,0.,7.,4.7,        165P    302
1.5707963267949,3.14159265358979,-3.14159265358979,                  165P    303
3.14159265358979;                                                    165P    304
128,1,8,1,2,0,1,0,0,1,-0.0975609756097562,-0.0975609756097562,       167P    305
0.829268292682927,0.829268292682927,-3.14159265358979,               167P    306
-3.14159265358979,-3.14159265358979,-1.5707963267949,                167P    307
-1.5707963267949,0.,0.,1.5707963267949,1.5707963267949,              167P    308
3.14159265358979,3.14159265358979,3.14159265358979,1.,1.,            167P    309
0.707106781186548,0.707106781186548,1.,1.,0.707106781186548,         167P    310
0.707106781186548,1.,1.,0.707106781186548,0.707106781186548,1.,      167P    311
1.,0.707106781186548,0.707106781186548,1.,1.,4.1,11.4,0.,4.1,        167P    312
7.6,0.,4.1,11.4,4.1,4.1,7.6,4.1,0.,11.4,4.1,0.,7.6,4.1,-4.1,         167P    313
11.4,4.1,-4.1,7.6,4.1,-4.1,11.4,0.,-4.1,7.6,0.,-4.1,11.4,-4.1,       167P    314
-4.1,7.6,-4.1,0.,11.4,-4.1,0.,7.6,-4.1,4.1,11.4,-4.1,4.1,7.6,        167P    315
-4.1,4.1,11.4,0.,4.1,7.6,0.,-0.0975609756097562,                     167P    316
0.829268292682927,-3.14159265358979,3.14159265358979;                167P    317
128,1,1,1,1,0,0,1,0,0,-1.101,-1.101,1.101,1.101,-1.101,-1.101,       169P    318
1.101,1.101,1.,1.,1.,1.,11.01,7.,11.01,-11.01,7.,11.01,11.01,7.,     169P    319
-11.01,-11.01,7.,-11.01,-1.101,1.101,-1.101,1.101;                   169P    320
128,2,8,2,2,0,1,0,0,1,-3.14159265358979,-3.14159265358979,           171P    321
-3.14159265358979,-1.5707963267949,-1.5707963267949,                 171P    322
-1.5707963267949,-3.14159265358979,-3.14159265358979,                171P    323
-3.14159265358979,-1.5707963267949,-1.5707963267949,0.,0.,           171P    324
1.5707963267949,1.5707963267949,3.14159265358979,                    171P    325
3.14159265358979,3.14159265358979,1.,0.707106781186543,1.,           171P    326
0.707106781186548,0.499999999999997,0.707106781186548,1.,            171P    327
0.707106781186543,1.,0.707106781186548,0.499999999999997,            171P    328
0.707106781186548,1.,0.707106781186543,1.,0.707106781186548,         171P    329
0.499999999999997,0.707106781186548,1.,0.707106781186543,1.,         171P    330
0.707106781186548,0.499999999999997,0.707106781186548,1.,            171P    331
0.707106781186543,1.,0.,12.,4.7,0.,12.,4.1,0.,11.4,4.1,-4.7,12.,     171P    332
4.7,-4.1,12.,4.1,-4.1,11.4,4.1,-4.7,12.,0.,-4.1,12.,0.,-4.1,         171P    333
11.4,0.,-4.7,12.,-4.7,-4.1,12.,-4.1,-4.1,11.4,-4.1,0.,12.,-4.7,      171P    334
0.,12.,-4.1,0.,11.4,-4.1,4.7,12.,-4.7,4.1,12.,-4.1,4.1,11.4,         171P    335
-4.1,4.7,12.,0.,4.1,12.,0.,4.1,11.4,0.,4.7,12.,4.7,4.1,12.,4.1,      171P    336
4.1,11.4,4.1,0.,12.,4.7,0.,12.,4.1,0.,11.4,4.1,                      171P    337
-3.14159265358979,-1.5707963267949,-3.14159265358979,                171P    338
3.14159265358979;                                                    171P    339
128,1,1,1,1,0,0,1,0,0,-0.651,-0.651,0.651,0.651,-0.651,-0.651,       173P    340
0.651,0.651,1.,1.,1.,1.,6.51,12.,-6.51,-6.51,12.,-6.51,6.51,12.,     173P    341
6.51,-6.51,12.,6.51,-0.651,0.651,-0.651,0.651;                       173P    342
128,2,8,2,2,0,1,0,0,1,-3.14159265358979,-3.14159265358979,           175P    343
-3.14159265358979,-1.57079632679489,-1.57079632679489,               175P    344
-1.57079632679489,-3.14159265358979,-3.14159265358979,               175P    345
-3.14159265358979,-1.5707963267949,-1.5707963267949,0.,0.,           175P    346
1.5707963267949,1.5707963267949,3.14159265358979,                    175P    347
3.14159265358979,3.14159265358979,1.,0.707106781186546,1.,           175P    348
0.707106781186548,0.499999999999999,0.707106781186548,1.,            175P    349
0.707106781186546,1.,0.707106781186548,0.499999999999999,            175P    350
0.707106781186548,1.,0.707106781186546,1.,0.707106781186548,         175P    351
0.499999999999999,0.707106781186548,1.,0.707106781186546,1.,         175P    352
0.707106781186548,0.499999999999999,0.707106781186548,1.,            175P    353
0.707106781186546,1.,0.,0.,-11.6,0.,-1.39716465440986D-15,-11.,      175P    354
0.,0.6,-11.,-11.6,0.,-11.6,-11.,-1.39716465440986D-15,-11.,-11.,     175P    355
0.6,-11.,-11.6,0.,0.,-11.,-1.38777878078145D-15,0.,-11.,0.6,0.,      175P    356
-11.6,0.,11.6,-11.,-1.37839290715303D-15,11.,-11.,0.6,11.,0.,0.,     175P    357
11.6,0.,-1.37839290715303D-15,11.,0.,0.6,11.,11.6,0.,11.6,11.,       175P    358
-1.37839290715303D-15,11.,11.,0.6,11.,11.6,0.,0.,11.,                175P    359
-1.38777878078145D-15,0.,11.,0.6,0.,11.6,0.,-11.6,11.,               175P    360
-1.39716465440986D-15,-11.,11.,0.6,-11.,0.,0.,-11.6,0.,              175P    361
-1.39716465440986D-15,-11.,0.,0.6,-11.,-3.14159265358979,            175P    362
-1.57079632679489,-3.14159265358979,3.14159265358979;                175P    363
128,1,8,1,2,0,1,0,0,1,0.0545454545454545,0.0545454545454545,         177P    364
0.636363636363636,0.636363636363636,-3.14159265358979,               177P    365
-3.14159265358979,-3.14159265358979,-1.5707963267949,                177P    366
-1.5707963267949,0.,0.,1.5707963267949,1.5707963267949,              177P    367
3.14159265358979,3.14159265358979,3.14159265358979,1.,1.,            177P    368
0.707106781186548,0.707106781186548,1.,1.,0.707106781186548,         177P    369
0.707106781186548,1.,1.,0.707106781186548,0.707106781186548,1.,      177P    370
1.,0.707106781186548,0.707106781186548,1.,1.,-11.,0.6,0.,-11.,       177P    371
7.,0.,-11.,0.6,11.,-11.,7.,11.,0.,0.6,11.,0.,7.,11.,11.,0.6,11.,     177P    372
11.,7.,11.,11.,0.6,0.,11.,7.,0.,11.,0.6,-11.,11.,7.,-11.,0.,0.6,     177P    373
-11.,0.,7.,-11.,-11.,0.6,-11.,-11.,7.,-11.,-11.,0.6,0.,-11.,7.,      177P    374
0.,0.0545454545454545,0.636363636363636,-3.14159265358979,           177P    375
3.14159265358979;                                                    177P    376
128,1,1,1,1,0,0,1,0,0,-2.526,-2.526,2.526,2.526,-2.526,-2.526,       179P    377
2.526,2.526,1.,1.,1.,1.,25.26,0.,25.26,-25.26,0.,25.26,25.26,0.,     179P    378
-25.26,-25.26,0.,-25.26,-2.526,2.526,-2.526,2.526;                   179P    379
128,2,8,2,2,0,1,0,0,1,-1.5707963267949,-1.5707963267949,             181P    380
-1.5707963267949,0.,0.,0.,-3.14159265358979,-3.14159265358979,       181P    381
-3.14159265358979,-1.5707963267949,-1.5707963267949,0.,0.,           181P    382
1.5707963267949,1.5707963267949,3.14159265358979,                    181P    383
3.14159265358979,3.14159265358979,1.,0.707106781186541,1.,           181P    384
0.707106781186548,0.499999999999996,0.707106781186548,1.,            181P    385
0.707106781186541,1.,0.707106781186548,0.499999999999996,            181P    386
0.707106781186548,1.,0.707106781186541,1.,0.707106781186548,         181P    387
0.499999999999996,0.707106781186548,1.,0.707106781186541,1.,         181P    388
0.707106781186548,0.499999999999996,0.707106781186548,1.,            181P    389
0.707106781186541,1.,0.,1.,-26.25,0.,-8.35527862831922D-16,          181P    390
-26.25,0.,0.,-25.25,-26.25,1.,-26.25,-26.25,                         181P    391
-8.35527862831922D-16,-26.25,-25.25,0.,-25.25,-26.25,1.,0.,          181P    392
-26.25,-8.32667268468867D-16,0.,-25.25,0.,0.,-26.25,1.,26.25,        181P    393
-26.25,-8.29806674105813D-16,26.25,-25.25,0.,25.25,0.,1.,26.25,      181P    394
0.,-8.29806674105813D-16,26.25,0.,0.,25.25,26.25,1.,26.25,26.25,     181P    395
-8.29806674105813D-16,26.25,25.25,0.,25.25,26.25,1.,0.,26.25,        181P    396
-8.32667268468867D-16,0.,25.25,0.,0.,26.25,1.,-26.25,26.25,          181P    397
-8.35527862831922D-16,-26.25,25.25,0.,-25.25,0.,1.,-26.25,0.,        181P    398
-8.35527862831922D-16,-26.25,0.,0.,-25.25,-1.5707963267949,0.,       181P    399
-3.14159265358979,3.14159265358979;                                  181P    400
128,1,8,1,2,0,1,0,0,1,0.0380952380952381,0.0380952380952381,         183P    401
0.266666666666667,0.266666666666667,-3.14159265358979,               183P    402
-3.14159265358979,-3.14159265358979,-1.5707963267949,                183P    403
-1.5707963267949,0.,0.,1.5707963267949,1.5707963267949,              183P    404
3.14159265358979,3.14159265358979,3.14159265358979,1.,1.,            183P    405
0.707106781186548,0.707106781186548,1.,1.,0.707106781186548,         183P    406
0.707106781186548,1.,1.,0.707106781186548,0.707106781186548,1.,      183P    407
1.,0.707106781186548,0.707106781186548,1.,1.,-26.25,7.,0.,           183P    408
-26.25,1.,0.,-26.25,7.,26.25,-26.25,1.,26.25,0.,7.,26.25,0.,1.,      183P    409
26.25,26.25,7.,26.25,26.25,1.,26.25,26.25,7.,0.,26.25,1.,0.,         183P    410
26.25,7.,-26.25,26.25,1.,-26.25,0.,7.,-26.25,0.,1.,-26.25,           183P    411
-26.25,7.,-26.25,-26.25,1.,-26.25,-26.25,7.,0.,-26.25,1.,0.,         183P    412
0.0380952380952381,0.266666666666667,-3.14159265358979,              183P    413
3.14159265358979;                                                    183P    414
128,2,8,2,2,0,1,0,0,1,-1.5707963267949,-1.5707963267949,             185P    415
-1.5707963267949,0.,0.,0.,-3.14159265358979,-3.14159265358979,       185P    416
-3.14159265358979,-1.5707963267949,-1.5707963267949,0.,0.,           185P    417
1.5707963267949,1.5707963267949,3.14159265358979,                    185P    418
3.14159265358979,3.14159265358979,1.,0.707106781186544,1.,           185P    419
0.707106781186548,0.499999999999998,0.707106781186548,1.,            185P    420
0.707106781186544,1.,0.707106781186548,0.499999999999998,            185P    421
0.707106781186548,1.,0.707106781186544,1.,0.707106781186548,         185P    422
0.499999999999998,0.707106781186548,1.,0.707106781186544,1.,         185P    423
0.707106781186548,0.499999999999998,0.707106781186548,1.,            185P    424
0.707106781186544,1.,0.,8.,-29.,0.,7.,-29.,0.,7.,-28.,-29.,8.,       185P    425
-29.,-29.,7.,-29.,-28.,7.,-28.,-29.,8.,0.,-29.,7.,0.,-28.,7.,0.,     185P    426
-29.,8.,29.,-29.,7.,29.,-28.,7.,28.,0.,8.,29.,0.,7.,29.,0.,7.,       185P    427
28.,29.,8.,29.,29.,7.,29.,28.,7.,28.,29.,8.,0.,29.,7.,0.,28.,7.,     185P    428
0.,29.,8.,-29.,29.,7.,-29.,28.,7.,-28.,0.,8.,-29.,0.,7.,-29.,0.,     185P    429
7.,-28.,-1.5707963267949,0.,-3.14159265358979,3.14159265358979;      185P    430
128,1,8,1,2,0,1,0,0,1,0.0344827586206896,0.0344827586206896,         187P    431
0.103448275862069,0.103448275862069,-3.14159265358979,               187P    432
-3.14159265358979,-3.14159265358979,-1.5707963267949,                187P    433
-1.5707963267949,0.,0.,1.5707963267949,1.5707963267949,              187P    434
3.14159265358979,3.14159265358979,3.14159265358979,1.,1.,            187P    435
0.707106781186548,0.707106781186548,1.,1.,0.707106781186548,         187P    436
0.707106781186548,1.,1.,0.707106781186548,0.707106781186548,1.,      187P    437
1.,0.707106781186548,0.707106781186548,1.,1.,29.,10.,0.,29.,8.,      187P    438
0.,29.,10.,-29.,29.,8.,-29.,0.,10.,-29.,0.,8.,-29.,-29.,10.,         187P    439
-29.,-29.,8.,-29.,-29.,10.,0.,-29.,8.,0.,-29.,10.,29.,-29.,8.,       187P    440
29.,0.,10.,29.,0.,8.,29.,29.,10.,29.,29.,8.,29.,29.,10.,0.,29.,      187P    441
8.,0.,0.0344827586206896,0.103448275862069,-3.14159265358979,        187P    442
3.14159265358979;                                                    187P    443
128,1,1,1,1,0,0,1,0,0,-2.801,-2.801,2.801,2.801,-2.801,-2.801,       189P    444
2.801,2.801,1.,1.,1.,1.,-28.01,7.,-28.01,28.01,7.,-28.01,-28.01,     189P    445
7.,28.01,28.01,7.,28.01,-2.801,2.801,-2.801,2.801;                   189P    446
128,2,8,2,2,0,1,0,0,1,0.,0.,0.,1.5707963267949,1.5707963267949,      191P    447
1.5707963267949,-3.14159265358979,-3.14159265358979,                 191P    448
-3.14159265358979,-1.5707963267949,-1.5707963267949,0.,0.,           191P    449
1.5707963267949,1.5707963267949,3.14159265358979,                    191P    450
3.14159265358979,3.14159265358979,1.,0.707106781186542,1.,           191P    451
0.707106781186548,0.499999999999996,0.707106781186548,1.,            191P    452
0.707106781186542,1.,0.707106781186548,0.499999999999996,            191P    453
0.707106781186548,1.,0.707106781186542,1.,0.707106781186548,         191P    454
0.499999999999996,0.707106781186548,1.,0.707106781186542,1.,         191P    455
0.707106781186548,0.499999999999996,0.707106781186548,1.,            191P    456
0.707106781186542,1.,0.,11.,-28.,0.,11.,-29.,0.,10.,-29.,-28.,       191P    457
11.,-28.,-29.,11.,-29.,-29.,10.,-29.,-28.,11.,0.,-29.,11.,0.,        191P    458
-29.,10.,0.,-28.,11.,28.,-29.,11.,29.,-29.,10.,29.,0.,11.,28.,       191P    459
0.,11.,29.,0.,10.,29.,28.,11.,28.,29.,11.,29.,29.,10.,29.,28.,       191P    460
11.,0.,29.,11.,0.,29.,10.,0.,28.,11.,-28.,29.,11.,-29.,29.,10.,      191P    461
-29.,0.,11.,-28.,0.,11.,-29.,0.,10.,-29.,0.,1.5707963267949,         191P    462
-3.14159265358979,3.14159265358979;                                  191P    463
128,1,1,1,1,0,0,1,0,0,-2.801,-2.801,2.801,2.801,-2.801,-2.801,       193P    464
2.801,2.801,1.,1.,1.,1.,28.01,11.,-28.01,-28.01,11.,-28.01,          193P    465
28.01,11.,28.01,-28.01,11.,28.01,-2.801,2.801,-2.801,2.801;          193P    466
128,2,8,2,2,0,1,0,0,1,0.,0.,0.,1.5707963267949,1.5707963267949,      195P    467
1.5707963267949,-3.14159265358979,-3.14159265358979,                 195P    468
-3.14159265358979,-1.5707963267949,-1.5707963267949,0.,0.,           195P    469
1.5707963267949,1.5707963267949,3.14159265358979,                    195P    470
3.14159265358979,3.14159265358979,1.,0.707106781186548,1.,           195P    471
0.707106781186548,0.5,0.707106781186548,1.,0.707106781186548,1.,     195P    472
0.707106781186548,0.5,0.707106781186548,1.,0.707106781186548,1.,     195P    473
0.707106781186548,0.5,0.707106781186548,1.,0.707106781186548,1.,     195P    474
0.707106781186548,0.5,0.707106781186548,1.,0.707106781186548,1.,     195P    475
0.,12.,-6.5,0.,12.,-7.5,0.,11.,-7.5,-6.5,12.,-6.5,-7.5,12.,-7.5,     195P    476
-7.5,11.,-7.5,-6.5,12.,0.,-7.5,12.,0.,-7.5,11.,0.,-6.5,12.,6.5,      195P    477
-7.5,12.,7.5,-7.5,11.,7.5,0.,12.,6.5,0.,12.,7.5,0.,11.,7.5,6.5,      195P    478
12.,6.5,7.5,12.,7.5,7.5,11.,7.5,6.5,12.,0.,7.5,12.,0.,7.5,11.,       195P    479
0.,6.5,12.,-6.5,7.5,12.,-7.5,7.5,11.,-7.5,0.,12.,-6.5,0.,12.,        195P    480
-7.5,0.,11.,-7.5,0.,1.5707963267949,-3.14159265358979,               195P    481
3.14159265358979;                                                    195P    482
502,30,4.1,7.6,-5.02105187650415D-16,0.,7.6,4.1,0.,7.,4.7,4.7,       197P    483
7.,5.75583995599256D-16,4.1,11.4,5.02105187650415D-16,0.,11.4,       197P    484
4.1,-11.,7.,1.34711147906209D-15,4.7,12.,-5.75583995599256D-16,      197P    485
0.,12.,4.7,6.5,12.,7.96020419445779D-16,0.,12.,-6.5,-11.6,0.,        197P    486
-1.42059028701093D-15,0.,0.,-11.6,0.,0.6,-11.,-11.,0.6,              197P    487
1.34711147906209D-15,-25.25,0.,3.09223316784707D-15,0.,0.,           197P    488
-25.25,-26.25,1.,-3.2146978477618D-15,0.,1.,-26.25,-26.25,7.,        197P    489
3.2146978477618D-15,29.,8.,3.55147571752732D-15,0.,8.,-29.,0.,       197P    490
7.,-28.,28.,7.,-3.42901103761259D-15,29.,10.,                        197P    491
-3.55147571752732D-15,0.,10.,-29.,28.,11.,3.42901103761259D-15,      197P    492
0.,11.,-28.,7.5,11.,-9.18485099360515D-16,0.,11.,-7.5;               197P    493
504,41,83,197,1,197,2,85,197,2,197,3,87,197,3,197,4,89,197,4,        199P    494
197,3,91,197,2,197,1,93,197,5,197,6,95,197,5,197,1,97,197,6,197,     199P    495
5,99,197,7,197,7,101,197,8,197,9,103,197,9,197,6,105,197,9,197,      199P    496
8,107,197,10,197,11,109,197,11,197,10,111,197,12,197,13,113,197,     199P    497
13,197,14,115,197,14,197,15,117,197,15,197,14,119,197,13,197,12,     199P    498
121,197,15,197,7,123,197,16,197,17,125,197,17,197,16,127,197,18,     199P    499
197,19,129,197,19,197,17,131,197,19,197,18,133,197,20,197,20,        199P    500
135,197,20,197,18,137,197,21,197,22,139,197,22,197,23,141,197,       199P    501
23,197,24,143,197,24,197,23,145,197,22,197,21,147,197,25,197,26,     199P    502
149,197,25,197,21,151,197,26,197,25,153,197,27,197,28,155,197,       199P    503
28,197,26,157,197,28,197,27,159,197,29,197,30,161,197,30,197,29,     199P    504
163,197,11,197,30;                                                   199P    505
406,1,5HBody1;                                                       201P    506
406,1,22Hspool_distance_plate:1;                                     203P    507
314,62.7450980392157,62.7450980392157,62.7450980392157,13HSteel      205P    508
- Satin;                                                             205P    509
S      1G      3D    206P    509                                        T      1
